<?xml version="1.0" encoding="iso-8859-1"?>
<!-- Generator: Adobe Illustrator 19.0.0, SVG Export Plug-In . SVG Version: 6.00 Build 0)  -->
<svg version="1.1" id="Layer_1" xmlns="http://www.w3.org/2000/svg" xmlns:xlink="http://www.w3.org/1999/xlink" x="0px" y="0px"
	 viewBox="0 0 512 512" style="enable-background:new 0 0 512 512;" xml:space="preserve">
<circle style="fill:#FF6262;" cx="256" cy="256" r="256"/>
<path style="fill:#FF2746;" d="M505.754,312.389l-58.975-58.975L87.859,296.719l57.237,57.544l-59.763,15.515L225.77,510.214
	C235.685,511.381,245.77,512,256,512C378.008,512,480.068,426.643,505.754,312.389z"/>
<path style="fill:#FFFFFF;" d="M393.812,223.992H136.878l-53.326-53.326H56.889l22.118,110.589
	c2.643,13.215,14.246,22.728,27.722,22.728h333.14c9.371,0,16.967-7.597,16.967-16.967
	C456.835,252.209,428.62,223.992,393.812,223.992z"/>
<path style="fill:#E5E5E5;" d="M76.485,268.641l2.522,12.614c2.643,13.215,14.246,22.726,27.722,22.726h333.14
	c9.371,0,16.967-7.596,16.967-16.967c0-6.392-0.96-12.559-2.729-18.373H76.485z"/>
<g>
	<path style="fill:#386895;" d="M442.09,246.519h-34.673c-5.079,0-9.194,4.117-9.194,9.194v0.574c0,5.079,4.117,9.194,9.194,9.194
		h45.64C450.519,258.5,446.776,252.101,442.09,246.519z"/>
	<circle style="fill:#386895;" cx="357.435" cy="257.879" r="7.604"/>
	<circle style="fill:#386895;" cx="315.613" cy="257.879" r="7.604"/>
	<circle style="fill:#386895;" cx="269.981" cy="257.879" r="7.604"/>
	<circle style="fill:#386895;" cx="224.349" cy="257.879" r="7.604"/>
	<circle style="fill:#386895;" cx="178.717" cy="257.879" r="7.604"/>
</g>
<polygon style="fill:#B5B5B5;" points="284.444,284.444 170.667,284.444 85.333,369.778 142.222,369.778 "/>
<g>
</g>
<g>
</g>
<g>
</g>
<g>
</g>
<g>
</g>
<g>
</g>
<g>
</g>
<g>
</g>
<g>
</g>
<g>
</g>
<g>
</g>
<g>
</g>
<g>
</g>
<g>
</g>
<g>
</g>
</svg>
